# xmcd CD database file
#
# Track frame offsets:
#	150
#	130317
#	272445
#	280800
#
# Disc length: 4066 seconds
#
# Revision: 1
# Processed by: cddbd v1.5.2PL0 Copyright (c) Steve Scherf et al.
# Submitted via: CDex 1.51
#
DISCID=340fe004
DTITLE=Lou Reed - Hudson River Wind Meditations
DYEAR=2007
DGENRE=New Age
TTITLE0=Move Your Heart
TTITLE1=Find Your Note
TTITLE2=Hudson River Wind (Blend the Ambiance)
TTITLE3=Wind Coda
EXTD=YEAR: 2007
EXTT0=
EXTT1=
EXTT2=
EXTT3=
PLAYORDER=
